<?xml version="1.0" standalone="no"?>
<!DOCTYPE svg PUBLIC "-//W3C//DTD SVG 20010904//EN"
 "http://www.w3.org/TR/2001/REC-SVG-20010904/DTD/svg10.dtd">
<svg version="1.0" xmlns="http://www.w3.org/2000/svg"
 width="477.000000pt" height="477.000000pt" viewBox="0 0 477.000000 477.000000"
 preserveAspectRatio="xMidYMid meet">
<metadata>
Created by potrace 1.14, written by Peter Selinger 2001-2017
</metadata>
<g transform="translate(0.000000,477.000000) scale(0.100000,-0.100000)"
fill="#000000" stroke="none">
<path d="M2529 4096 c-4 -4 -50 -12 -114 -21 -101 -14 -313 -115 -383 -182
-19 -19 -40 -16 -52 7 -15 27 -27 25 -61 -11 -18 -20 -29 -42 -29 -60 0 -16
-4 -29 -9 -29 -5 0 -16 -6 -23 -12 -7 -7 -27 -20 -43 -30 -17 -9 -44 -24 -62
-34 -26 -15 -35 -16 -55 -6 -69 36 -137 7 -142 -60 -2 -22 -9 -34 -24 -39 -15
-6 -20 -13 -15 -25 5 -14 3 -15 -14 -6 -19 11 -136 10 -185 -2 -16 -3 -40 -8
-55 -11 -15 -2 -36 -15 -47 -29 -15 -18 -35 -26 -71 -31 -27 -3 -51 -8 -54
-11 -2 -2 -4 -23 -3 -47 l2 -44 -67 -1 c-38 0 -147 -3 -243 -6 -109 -3 -177
-2 -180 5 -9 13 -131 14 -139 1 -4 -6 -20 -10 -36 -10 -74 4 -177 -30 -241
-78 -84 -64 -116 -137 -89 -202 25 -58 86 -78 180 -57 47 11 147 12 183 3 35
-9 45 -38 13 -38 -15 0 -19 -7 -19 -28 1 -48 -13 -76 -66 -126 -61 -59 -103
-86 -133 -86 -48 0 -41 46 12 74 37 20 42 42 9 40 -47 -3 -78 -15 -100 -39
-58 -63 0 -159 84 -140 17 3 51 19 76 36 26 16 59 29 74 29 15 0 38 6 52 13
22 11 25 18 22 60 -2 36 2 51 17 66 25 25 37 66 22 76 -6 3 -9 11 -6 16 13 19
-8 51 -42 65 -35 15 -127 20 -173 9 -14 -4 -51 -9 -82 -12 -51 -5 -59 -3 -82
20 -59 59 -8 169 104 227 47 24 138 47 174 44 51 -5 57 -10 45 -41 -15 -41 -3
-90 29 -110 15 -9 29 -18 31 -20 2 -1 4 -13 5 -25 1 -15 8 -24 21 -26 58 -9
66 -15 135 -117 76 -111 145 -187 195 -212 17 -9 38 -25 48 -37 11 -12 38 -43
62 -71 24 -27 60 -68 79 -90 20 -22 36 -42 36 -45 0 -3 -12 -14 -27 -25 -37
-28 -53 -73 -55 -155 -1 -39 -4 -73 -7 -75 -4 -2 -22 -6 -41 -9 -19 -3 -46 -8
-60 -11 -14 -3 -45 -8 -70 -11 -167 -21 -202 -44 -228 -154 -20 -79 -21 -167
-8 -477 4 -79 3 -143 -1 -144 -48 -5 -69 -20 -57 -41 6 -10 27 -14 64 -14 l55
1 1 -120 c1 -66 4 -142 7 -170 6 -52 30 -175 37 -195 1 -3 2 -8 1 -12 0 -5 6
-8 15 -8 8 0 12 -4 9 -10 -3 -5 3 -10 15 -10 12 0 19 -4 16 -9 -4 -5 4 -7 16
-3 16 4 19 2 13 -8 -6 -9 -4 -11 5 -5 7 4 16 2 21 -6 7 -11 9 -10 9 4 0 11 5
15 11 11 6 -3 44 -6 85 -6 50 0 72 -3 68 -10 -4 -6 -2 -8 4 -4 5 3 13 0 16 -6
3 -7 3 -2 0 12 -5 24 -4 24 10 6 8 -10 21 -16 28 -13 10 4 10 6 1 6 -7 1 -13
6 -13 12 0 5 5 7 10 4 6 -4 18 -1 27 7 11 9 14 9 9 1 -5 -9 4 -12 33 -9 26 2
38 0 34 -7 -4 -7 0 -8 12 -4 9 4 25 2 33 -5 13 -11 15 -10 9 6 -6 15 -5 17 6
8 8 -7 18 -8 22 -4 5 4 5 1 1 -5 -4 -8 -1 -13 8 -13 10 0 13 6 9 17 -4 11 -3
14 6 9 6 -4 9 -16 6 -27 -4 -11 -3 -19 2 -18 24 4 25 -3 3 -17 l-25 -15 25 7
c14 4 28 12 32 18 7 11 12 1 9 -17 -1 -5 3 -6 9 -2 6 4 18 1 27 -7 12 -9 15
-9 9 0 -10 16 2 15 19 -2 8 -7 11 -17 7 -21 -4 -4 3 -2 16 4 12 6 22 16 22 22
0 6 4 8 9 4 5 -3 12 -1 16 4 3 6 -4 8 -15 6 -11 -2 -18 -1 -16 3 3 4 -12 9
-32 10 -75 3 -91 6 -85 16 3 5 2 6 -4 3 -5 -3 -10 0 -10 8 0 8 4 12 9 9 4 -3
8 1 8 8 0 10 2 10 9 -1 12 -18 56 -27 45 -9 -6 10 -4 9 8 0 13 -10 22 -11 38
-2 11 6 20 7 19 3 -3 -18 1 -36 8 -30 3 4 15 0 25 -10 10 -9 18 -11 18 -5 0 6
-5 14 -10 17 -13 8 -13 25 0 25 6 0 9 -5 8 -12 -2 -6 5 -14 16 -16 11 -2 16 0
12 7 -4 6 -2 11 4 11 7 0 9 -8 5 -21 -6 -19 -5 -20 15 -9 18 10 20 14 9 21 -8
5 -9 9 -3 9 18 0 24 -13 13 -27 -8 -9 -8 -13 -1 -13 6 0 17 9 25 21 l15 21 7
-21 c3 -12 11 -19 16 -16 5 4 9 1 9 -5 0 -6 5 -8 10 -5 6 4 8 10 6 14 -3 3 4
7 15 7 18 0 19 -2 4 -12 -9 -7 -12 -15 -6 -18 5 -4 17 4 25 16 9 12 16 18 16
13 0 -6 5 -17 10 -25 9 -13 13 -11 30 10 18 24 19 24 14 3 -4 -12 -15 -25 -25
-28 -11 -4 -17 -11 -14 -16 9 -13 -4 -31 -17 -23 -6 4 -5 10 3 16 11 7 10 8
-4 4 -12 -4 -16 -2 -11 6 4 7 3 8 -4 4 -18 -11 -14 -21 13 -36 14 -7 25 -17
25 -22 0 -5 -14 -1 -31 9 -20 12 -29 24 -25 35 2 10 0 16 -4 13 -5 -3 -11 -1
-15 4 -3 6 -13 8 -23 5 -13 -5 -14 -4 -4 4 11 7 11 10 -3 15 -9 4 -14 3 -11
-1 3 -5 -2 -9 -10 -9 -10 0 -11 4 -4 11 5 5 10 15 10 21 -1 5 -8 1 -18 -10 -9
-11 -26 -21 -37 -23 -16 -2 -17 -1 -5 7 12 8 10 10 -8 8 -30 -2 -28 -12 7 -27
21 -8 28 -17 24 -28 -4 -14 -3 -14 5 -3 6 8 7 21 4 30 -5 14 -4 14 11 2 14
-11 15 -17 5 -30 -8 -10 -4 -8 10 4 20 16 25 17 32 5 8 -13 10 -13 11 0 0 10
3 8 9 -5 8 -21 -14 -50 -31 -39 -5 3 -9 0 -9 -5 0 -13 10 -14 30 -2 8 6 18 7
23 4 6 -3 0 -11 -11 -17 -16 -8 -19 -15 -12 -26 8 -13 10 -12 10 3 0 10 4 16
9 13 14 -9 21 20 8 33 -15 15 4 13 26 -3 15 -12 16 -14 2 -20 -20 -7 -19 -19
5 -34 11 -7 20 -9 19 -5 -5 29 3 35 16 13 8 -14 14 -20 15 -14 0 13 100 15
100 2 0 -5 7 -2 16 6 20 21 25 20 17 -1 -6 -16 -4 -16 16 1 22 20 22 20 15 0
-6 -16 -5 -17 7 -6 14 13 33 17 25 4 -2 -4 4 -8 14 -8 16 0 16 2 3 26 -13 21
-13 22 0 8 14 -18 43 -26 33 -10 -2 4 4 9 15 9 18 2 18 0 -3 -17 l-23 -18 27
1 c14 1 24 5 21 9 -2 5 1 8 6 8 6 0 11 -4 11 -10 0 -5 5 -10 11 -10 5 0 8 4 4
9 -3 5 -1 13 5 16 6 4 9 3 8 -2 -2 -4 2 -8 7 -8 6 0 9 4 7 8 -1 5 2 6 8 2 6
-3 8 -10 5 -15 -3 -5 0 -12 6 -16 7 -4 9 -3 6 3 -9 14 22 26 37 15 14 -11 58
-13 52 -3 -3 4 1 8 9 8 8 0 12 -4 10 -7 -3 -4 12 -7 33 -6 20 2 43 -2 51 -8
11 -8 13 -8 7 2 -5 8 0 12 14 12 14 0 19 -4 15 -12 -4 -7 1 -4 9 6 10 13 16
15 16 7 0 -11 3 -11 17 0 11 10 14 10 9 1 -9 -15 -1 -15 25 -2 11 6 19 7 19 2
0 -14 39 -22 47 -10 3 7 1 8 -5 4 -8 -5 -10 -2 -6 9 6 14 8 14 21 -2 11 -14
16 -15 20 -5 4 10 9 9 20 -5 8 -10 12 -13 9 -6 -4 6 -2 14 4 18 5 3 10 1 10
-6 0 -8 5 -7 17 2 9 8 14 9 10 3 -3 -6 0 -11 8 -11 8 0 11 5 8 11 -3 6 0 5 8
-2 7 -6 20 -12 28 -12 14 0 14 1 1 10 -12 7 -10 9 7 7 12 0 19 -5 17 -9 -3 -4
0 -8 5 -8 6 0 11 5 11 12 0 6 7 3 16 -8 8 -10 13 -14 10 -7 -4 6 -2 14 4 18 5
3 10 1 10 -5 0 -6 5 -8 10 -5 6 4 17 2 25 -5 10 -9 16 -7 24 7 7 12 10 13 11
4 0 -11 3 -11 17 0 9 8 14 9 10 3 -4 -7 5 -11 25 -12 24 -1 28 2 18 8 -8 6
-10 10 -4 10 6 0 14 -3 18 -7 11 -11 50 -11 64 -1 9 8 12 5 13 -8 0 -18 1 -18
9 1 5 11 9 15 9 10 1 -6 10 -11 20 -12 14 -1 18 3 14 15 -4 14 -3 14 5 3 12
-17 42 -24 42 -9 0 6 7 4 17 -3 11 -10 14 -10 9 -1 -4 6 -2 12 3 12 6 0 11 -4
11 -8 0 -5 10 -8 23 -7 13 2 21 8 19 16 -2 10 1 9 10 -2 13 -16 51 -19 64 -6
12 12 26 8 18 -5 -5 -9 -2 -9 9 1 12 9 17 10 17 2 0 -8 5 -9 19 -1 26 13 34
13 25 -3 -6 -9 -5 -9 7 0 11 9 19 9 26 2 8 -8 13 -7 18 2 5 7 4 10 -2 6 -5 -3
-10 0 -10 8 0 8 2 15 4 15 8 0 32 -28 28 -32 -2 -2 4 -4 15 -4 12 0 16 4 10
11 -6 7 -2 11 10 11 10 0 17 -3 14 -7 -2 -4 2 -9 10 -12 10 -4 12 1 9 16 -4
22 -4 22 9 -1 8 -12 17 -20 21 -16 4 4 1 14 -5 23 -8 10 -4 9 10 -3 13 -11 23
-14 23 -8 3 26 4 31 11 37 3 4 5 -4 4 -17 -3 -22 -1 -23 71 -22 82 2 98 9 69
30 -11 8 -15 14 -8 14 6 0 18 -10 26 -21 8 -12 21 -19 29 -16 8 3 19 1 24 -4
6 -6 17 -2 29 9 16 15 22 16 31 6 7 -6 9 -16 5 -20 -4 -5 0 -3 9 4 9 6 20 8
24 4 5 -4 5 2 2 13 -7 20 -7 20 8 1 8 -11 18 -17 21 -13 4 4 1 13 -5 21 -9 11
-9 16 0 22 7 4 9 3 6 -3 -15 -24 51 -49 80 -30 6 4 14 3 18 -3 11 -17 45 8 39
28 -5 13 -4 14 4 3 6 -8 9 -19 8 -25 -2 -6 -1 -8 1 -3 3 4 10 4 15 1 7 -4 8
-2 4 4 -4 7 -3 12 3 12 5 0 12 -8 14 -18 4 -15 5 -15 6 -1 0 9 8 19 16 23 14
5 20 -6 16 -28 -1 -5 5 -4 13 3 8 7 21 9 27 5 8 -4 9 -3 5 4 -4 7 -2 12 5 12
8 0 8 5 -2 18 -11 14 -11 15 1 5 18 -17 33 -17 24 0 -4 6 2 4 14 -7 12 -10 19
-23 15 -29 -3 -6 -1 -7 6 -3 6 4 9 10 7 14 -2 4 2 12 9 19 10 9 15 9 17 1 3
-7 9 -8 18 -3 8 5 23 10 34 10 18 2 18 1 2 -11 -10 -6 -27 -11 -40 -10 -13 2
-23 -3 -23 -10 0 -10 5 -10 21 -2 12 6 21 10 21 9 0 -2 13 1 29 5 19 4 31 2
38 -7 7 -10 7 -8 3 9 -4 13 -2 23 4 23 19 2 26 4 36 10 22 12 40 3 37 -18 -3
-25 8 -35 27 -24 11 7 10 14 -4 35 -10 15 -14 26 -9 24 14 -4 122 69 156 105
35 38 88 112 88 124 0 4 7 21 15 36 8 16 16 38 17 50 2 12 6 27 9 32 4 6 6 64
4 130 -1 97 -6 131 -24 177 -12 32 -27 60 -32 63 -13 9 -11 52 2 61 8 4 10 27
5 68 -5 55 -8 77 -21 154 -6 36 -26 54 -49 47 -54 -16 -66 -13 -67 14 -3 63
-16 179 -23 211 -17 75 -31 239 -31 365 0 110 0 110 37 167 46 70 57 112 53
191 -4 82 -26 130 -72 158 -31 20 -53 24 -123 25 -47 0 -98 -3 -115 -8 -16 -5
-38 -11 -48 -13 -9 -2 -77 -24 -150 -49 -72 -24 -149 -48 -169 -51 -35 -7 -38
-5 -44 21 -4 16 -20 46 -36 66 l-30 38 26 10 c26 10 28 13 28 62 1 22 7 30 34
40 25 9 34 18 34 34 0 20 -59 203 -81 249 -13 30 -78 213 -95 270 -23 77 -37
105 -54 107 -8 1 -33 2 -56 3 -22 1 -46 5 -53 9 -7 4 -24 3 -39 -3 -15 -6 -63
-13 -107 -16 -44 -2 -99 -6 -122 -9 -37 -5 -44 -3 -55 17 -6 12 -13 27 -15 32
-1 6 -9 28 -17 50 -8 22 -15 51 -16 65 -1 71 -105 135 -285 176 -33 7 -329 16
-336 10z m789 -367 c-2 -6 5 -16 15 -22 14 -9 19 -9 26 2 6 9 35 15 92 17 46
2 100 5 119 7 34 3 60 -7 60 -24 0 -7 -87 -38 -128 -45 -31 -6 -112 -39 -112
-46 0 -6 27 -84 47 -138 3 -8 7 -19 9 -25 2 -5 10 -28 18 -50 25 -67 126 -357
126 -361 0 -2 7 -4 15 -4 8 0 15 -4 15 -8 0 -11 -110 -6 -122 6 -5 5 -11 16
-12 23 -2 8 -8 25 -13 39 -6 14 -29 70 -51 125 -55 135 -99 240 -116 278 -44
97 -85 201 -82 204 2 3 18 5 35 5 17 1 36 7 42 15 14 16 20 17 17 2z m-1791
-174 c-2 -5 -35 -11 -73 -13 -45 -2 -66 0 -59 7 17 17 137 22 132 6z m-177
-13 c0 -10 -36 -9 -46 1 -4 4 5 7 19 7 15 0 27 -4 27 -8z m-810 -136 c0 -9
-30 -14 -35 -6 -4 6 3 10 14 10 12 0 21 -2 21 -4z m554 -39 c7 -26 -3 -47 -23
-48 -9 -1 -34 -3 -56 -4 -146 -9 -189 -22 -200 -57 -8 -24 -32 -30 -50 -12 -9
9 -23 13 -34 9 -19 -6 -61 27 -61 47 0 4 -7 8 -16 8 -20 0 -53 40 -47 57 3 8
47 12 156 12 83 1 152 2 153 4 1 1 41 2 88 3 75 0 85 -2 90 -19z m6 -101 c0
-12 -7 -43 -16 -68 -14 -42 -18 -46 -52 -50 -20 -1 -47 -2 -59 0 -20 3 -22 6
-12 25 15 26 14 76 0 90 -21 21 -10 27 44 26 30 -1 58 1 61 4 12 12 34 -6 34
-27z m-52 -151 c5 -4 -37 -75 -44 -75 -9 0 -114 73 -114 79 0 6 152 3 158 -4z
m40 -27 c-6 -18 -12 -45 -15 -60 -6 -30 -13 -34 -31 -16 -8 8 -7 17 7 37 10
14 22 36 25 49 4 12 11 22 16 22 5 0 4 -15 -2 -32z m-144 -246 c-9 -2 -29 12
-48 34 -17 21 -54 63 -82 94 -116 125 -110 127 14 5 92 -90 127 -131 116 -133z
m189 170 c4 -61 4 -62 -17 -48 -21 14 -24 42 -9 76 6 15 10 25 12 37 4 20 10
-10 14 -65z m2625 41 c-2 -11 -14 -18 -32 -20 -15 -1 -31 -4 -34 -7 -3 -3 -12
0 -20 6 -12 10 -9 14 19 24 50 18 71 17 67 -3z m-2788 -39 c0 -2 -9 0 -20 6
-11 6 -20 13 -20 16 0 2 9 0 20 -6 11 -6 20 -13 20 -16z m61 -44 c13 -10 19
-19 13 -20 -7 0 -22 9 -35 20 -13 10 -19 19 -13 20 7 0 22 -9 35 -20z m83 -53
c17 -14 25 -26 19 -30 -12 -7 -63 29 -63 44 0 15 13 10 44 -14z m-107 -113 c9
-23 -19 -37 -37 -18 -13 13 -13 16 0 24 21 14 30 12 37 -6z m253 -4 c0 -17 -3
-19 -19 -10 -30 16 -32 26 -5 28 18 1 24 -3 24 -18z m-127 -120 c70 -67 76
-76 60 -87 -31 -23 -47 -13 -117 67 -56 66 -66 83 -56 95 15 19 19 16 113 -75z
m507 -1368 c0 -4 22 -33 49 -63 40 -45 53 -68 65 -120 8 -35 19 -76 25 -91 6
-16 9 -28 7 -28 -3 0 -13 -3 -23 -6 -14 -5 -15 -4 -3 4 11 8 7 10 -15 8 -17
-1 -36 -6 -44 -11 -10 -6 -13 -4 -9 6 4 10 -1 15 -12 15 -12 0 -16 -5 -12 -16
4 -12 3 -13 -9 -4 -17 12 -68 12 -88 0 -9 -6 -12 -5 -7 2 4 7 -1 10 -14 9 -11
-1 -20 -5 -20 -9 0 -4 -5 -8 -11 -8 -5 0 -8 4 -5 9 3 5 -1 12 -10 15 -8 3 -13
2 -10 -3 3 -5 -1 -11 -9 -15 -10 -3 -15 1 -16 12 0 14 -2 14 -9 -3 -6 -13 -9
-15 -9 -5 -1 13 -2 13 -12 0 -11 -16 -11 -17 12 70 11 42 16 71 18 113 1 10 5
16 10 12 6 -3 15 4 21 15 14 26 46 26 53 0 7 -26 24 -25 33 2 6 21 7 21 20 3
8 -10 15 -17 16 -14 25 40 26 47 12 74 -17 32 -17 35 -4 35 6 0 10 -4 10 -8z
m2024 -237 c59 -104 145 -204 198 -228 31 -13 43 -33 26 -43 -7 -4 -8 -3 -4 4
4 7 2 12 -3 12 -6 0 -11 -6 -11 -12 0 -10 -3 -9 -9 1 -5 7 -13 11 -19 7 -6 -3
-14 -1 -17 4 -5 8 -14 5 -28 -7 -11 -10 -17 -13 -14 -7 4 7 0 15 -9 18 -8 3
-12 2 -9 -4 3 -6 1 -10 -4 -10 -6 0 -11 6 -12 13 0 8 -2 8 -6 -2 -5 -11 -7
-11 -14 0 -7 12 -9 11 -9 -1 0 -13 -1 -13 -10 0 -7 11 -10 11 -10 2 0 -9 -5
-10 -18 -3 -14 7 -25 6 -40 -5 -12 -8 -22 -12 -22 -8 0 3 -8 0 -17 -7 -16 -13
-17 -12 -4 4 8 9 10 21 6 25 -4 4 -10 1 -12 -5 -3 -7 -9 -13 -14 -13 -6 0 -8
4 -4 9 3 5 0 13 -6 17 -8 4 -9 3 -5 -4 4 -7 2 -12 -5 -12 -8 0 -8 -4 1 -15 20
-24 5 -18 -16 7 -10 12 -13 18 -5 13 9 -5 12 -4 7 3 -4 6 -13 9 -22 5 -12 -4
-12 -8 -2 -22 8 -11 5 -10 -10 3 -15 13 -22 15 -22 6 0 -9 -3 -10 -13 -2 -7 6
-25 9 -39 7 -16 -3 -36 3 -54 17 l-29 22 19 -22 c16 -19 17 -25 6 -35 -10 -9
-11 -9 -6 0 4 7 -3 17 -16 24 -22 12 -22 11 -8 -6 14 -17 14 -17 -7 -7 -26 14
-34 15 -30 3 1 -5 -2 -8 -8 -8 -5 1 -9 4 -8 7 0 3 -6 12 -15 20 -14 13 -15 12
-9 -3 4 -11 1 -17 -9 -17 -9 0 -12 5 -8 13 5 9 4 9 -6 0 -7 -6 -19 -9 -28 -6
-11 5 -13 3 -7 -7 5 -9 4 -11 -4 -6 -6 4 -8 12 -5 18 4 6 1 9 -7 6 -8 -3 -14
-10 -14 -16 0 -19 -11 -21 -12 -2 -1 11 2 22 8 25 5 4 9 11 9 18 0 6 -7 2 -15
-9 -10 -13 -17 -15 -22 -8 -12 17 -43 13 -41 -5 2 -9 -3 -16 -10 -16 -7 0 -16
-6 -21 -13 -6 -10 -10 -8 -14 8 -3 13 -10 19 -16 15 -6 -3 -9 -12 -5 -18 3 -7
-2 -3 -11 8 -9 11 -23 19 -31 17 -17 -3 -19 14 -2 24 7 4 8 3 4 -4 -4 -7 1
-10 14 -7 11 2 18 0 15 -6 -4 -5 -1 -9 4 -9 6 0 11 6 11 13 0 8 4 7 10 -3 5
-8 10 -11 10 -7 0 4 -7 19 -16 32 -13 20 -20 23 -35 14 -27 -14 -38 -4 -33 29
3 19 2 23 -5 12 -5 -8 -8 -17 -5 -22 2 -4 -5 -12 -16 -18 -13 -7 -20 -7 -20 0
0 5 -5 10 -11 10 -5 0 -7 -4 -4 -10 5 -9 -34 -15 -51 -7 -3 1 -12 -11 -20 -26
-9 -16 -20 -25 -26 -21 -7 5 -6 11 5 19 10 7 17 16 17 20 0 5 -3 5 -6 2 -4 -3
-15 -2 -25 3 -12 7 -20 7 -24 0 -3 -5 2 -10 12 -11 11 0 13 -3 5 -6 -6 -2 -10
-8 -7 -13 3 -4 -2 -13 -9 -19 -10 -9 -16 -9 -21 -1 -4 6 -3 9 2 8 8 -3 13 5
13 23 0 5 -6 7 -12 3 -10 -6 -10 -4 0 7 19 21 14 30 -9 17 -17 -11 -23 -11
-26 0 -3 6 -9 10 -13 7 -23 -14 -16 16 12 46 16 19 25 27 19 17 -9 -12 -9 -17
1 -21 7 -2 9 -8 5 -13 -4 -5 -12 -2 -17 6 -6 9 -10 10 -10 3 0 -17 33 -32 78
-35 6 -1 12 -6 12 -12 0 -6 5 -4 10 4 9 13 10 13 10 0 1 -12 3 -11 11 3 8 14
14 16 25 6 8 -6 17 -9 21 -5 3 3 1 6 -6 6 -7 0 -9 5 -6 10 4 6 3 10 -2 9 -22
-4 -25 3 -9 20 12 13 14 21 6 26 -6 4 -14 4 -17 1 -4 -3 0 -6 7 -6 9 0 8 -6
-5 -20 -10 -11 -15 -20 -11 -20 4 0 4 -5 0 -11 -4 -8 -9 -7 -15 2 -5 8 -1 21
9 33 9 11 12 16 5 13 -6 -4 -15 -2 -19 5 -4 7 -4 10 1 6 4 -4 14 -3 22 3 9 8
17 8 26 1 8 -7 18 -7 27 -2 20 13 43 12 35 0 -4 -6 -11 -8 -16 -5 -16 10 -10
-1 10 -19 19 -17 19 -17 17 1 -2 10 2 24 8 32 8 11 8 13 -1 7 -7 -4 -13 -5
-13 -2 0 11 63 105 69 102 8 -5 159 -19 201 -18 56 1 183 11 210 17 14 3 50 8
80 11 30 3 56 7 58 8 9 10 77 -12 86 -29z m-2099 -95 c10 -11 16 -20 13 -20
-3 0 -13 9 -23 20 -10 11 -16 20 -13 20 3 0 13 -9 23 -20z m-42 -5 c-3 -9 -8
-14 -10 -11 -3 3 -2 9 2 15 9 16 15 13 8 -4z m165 -15 c-7 -10 -14 -17 -17
-15 -4 4 18 35 25 35 2 0 -1 -9 -8 -20z m39 -5 c0 -8 -4 -12 -9 -9 -5 3 -6 10
-3 15 9 13 12 11 12 -6z m1091 -2 c-12 -15 -22 -17 -13 -3 3 6 1 10 -4 10 -15
0 -14 -13 5 -36 8 -10 12 -13 8 -5 -3 7 0 17 7 22 20 13 35 11 22 -2 -6 -6 -9
-17 -6 -25 3 -9 -2 -12 -19 -8 -12 3 -28 6 -34 6 -12 1 -12 27 -1 45 4 6 16
11 27 10 14 -1 16 -4 8 -14z m-1388 -3 c0 -5 -2 -10 -4 -10 -3 0 -8 5 -11 10
-3 6 -1 10 4 10 6 0 11 -4 11 -10z m37 3 c-4 -3 1 -16 10 -27 14 -15 14 -18 2
-8 -9 6 -18 9 -22 6 -3 -3 -4 2 -2 13 5 24 4 23 12 23 3 0 3 -3 0 -7z m158 -2
c-9 -8 -36 -10 -30 -2 2 4 11 8 20 8 8 0 13 -3 10 -6z m-242 -16 c-3 -9 -8
-14 -10 -11 -3 3 -2 9 2 15 9 16 15 13 8 -4z m217 -30 c19 -22 8 -25 -12 -3
-10 10 -14 18 -9 18 5 0 14 -7 21 -15z m112 -23 c-7 -2 -9 -9 -5 -15 3 -7 2
-8 -2 -4 -16 14 -14 36 3 29 10 -4 12 -7 4 -10z m998 -2 c0 -5 -5 -10 -11 -10
-5 0 -7 5 -4 10 3 6 8 10 11 10 2 0 4 -4 4 -10z m275 -21 c-3 -8 -15 -21 -28
-28 -12 -8 -19 -10 -15 -6 9 10 -10 35 -25 35 -7 0 -7 -4 1 -12 7 -7 12 -17
12 -22 0 -6 -7 -1 -15 11 -10 15 -22 20 -33 16 -9 -3 -14 -3 -11 1 4 4 16 9
28 11 11 3 31 7 42 10 12 2 24 7 27 10 10 9 23 -11 17 -26z m58 17 c4 -9 0
-13 -11 -11 -9 2 -19 4 -22 4 -4 1 21 20 26 21 1 0 4 -6 7 -14z m-1635 -24 c5
-17 -13 -15 -27 2 -10 12 -9 14 5 12 10 -2 20 -8 22 -14z m439 -2 c1 -11 -4
-20 -12 -20 -9 0 -12 -6 -9 -15 5 -12 9 -13 20 -4 18 15 32 3 16 -13 -20 -20
-13 -32 7 -14 17 16 19 16 25 0 4 -9 4 -19 1 -22 -3 -3 -5 0 -5 6 0 7 -5 12
-10 12 -7 0 -7 -6 -1 -18 7 -14 6 -19 -4 -19 -7 0 -11 6 -9 12 7 17 -45 12
-56 -5 -5 -8 -6 -18 -3 -24 3 -5 1 -6 -6 -2 -12 8 -8 19 17 49 8 9 13 20 10
23 -3 3 -18 -10 -33 -29 -23 -31 -65 -62 -50 -37 3 6 1 10 -4 10 -6 0 -11 -5
-11 -12 0 -6 -6 -3 -14 8 -14 18 -15 18 -21 2 -4 -10 -11 -15 -17 -12 -5 3 0
13 12 21 14 10 19 21 15 33 -7 21 22 52 52 56 10 2 29 -7 42 -19 19 -17 23
-18 18 -5 -4 11 0 21 11 27 9 6 13 11 9 11 -5 0 -5 5 -2 10 9 14 11 13 12 -10z
m-33 -2 c-3 -4 -9 -8 -15 -8 -5 0 -9 4 -9 8 0 5 7 9 15 9 8 0 12 -4 9 -9z
m911 -6 c-3 -3 -11 0 -18 7 -9 10 -8 11 6 5 10 -3 15 -9 12 -12z m35 8 c0 -5
-2 -10 -4 -10 -3 0 -8 5 -11 10 -3 6 -1 10 4 10 6 0 11 -4 11 -10z m-860 -4
c0 -2 -7 -7 -16 -10 -8 -3 -12 -2 -9 4 6 10 25 14 25 6z m1249 -10 c9 -10 8
-15 -2 -19 -8 -3 -13 3 -14 14 -2 23 1 24 16 5z m-244 -6 c3 -5 1 -10 -4 -10
-6 0 -11 5 -11 10 0 6 2 10 4 10 3 0 8 -4 11 -10z m82 -15 c0 -8 -4 -15 -9
-15 -10 0 -11 14 -1 23 9 10 10 9 10 -8z m-1073 -10 c11 -8 17 -17 14 -21 -4
-3 -16 4 -27 15 -24 24 -15 28 13 6z m927 -8 c-10 -9 -11 -8 -5 6 3 10 9 15
12 12 3 -3 0 -11 -7 -18z m-886 -6 c3 -5 2 -12 -3 -15 -5 -3 -9 1 -9 9 0 17 3
19 12 6z m1175 5 c0 -3 -4 -8 -10 -11 -5 -3 -10 -1 -10 4 0 6 5 11 10 11 6 0
10 -2 10 -4z m115 -5 c-9 -8 -36 -10 -30 -2 2 4 11 8 20 8 8 0 13 -3 10 -6z
m265 -1 c0 -5 -2 -10 -4 -10 -3 0 -8 5 -11 10 -3 6 -1 10 4 10 6 0 11 -4 11
-10z m230 6 c0 -2 -8 -10 -17 -17 -16 -13 -17 -12 -4 4 13 16 21 21 21 13z
m107 -13 c0 -9 -4 -10 -14 -2 -7 6 -13 12 -13 14 0 1 6 2 13 2 8 0 14 -6 14
-14z m79 -8 c1 -8 -1 -13 -6 -10 -5 3 -10 0 -12 -7 -3 -7 -7 -3 -10 9 -4 17
-2 20 10 16 11 -5 13 -3 7 8 -5 8 -4 11 0 6 5 -4 10 -14 11 -22z m-263 0 c-3
-9 -8 -14 -10 -11 -3 3 -2 9 2 15 9 16 15 13 8 -4z m120 0 c-3 -9 -8 -14 -10
-11 -3 3 -2 9 2 15 9 16 15 13 8 -4z m204 -7 c-3 -8 -6 -5 -6 6 -1 11 2 17 5
13 3 -3 4 -12 1 -19z m-2002 3 c3 -5 2 -12 -3 -15 -5 -3 -9 1 -9 9 0 17 3 19
12 6z m1025 -1 c0 -5 -5 -10 -11 -10 -5 0 -7 5 -4 10 3 6 8 10 11 10 2 0 4 -4
4 -10z m576 -2 c3 -4 -1 -5 -10 -4 -8 1 -18 5 -22 8 -3 4 1 5 10 4 8 -1 18 -5
22 -8z m100 -5 c-2 -9 -9 -19 -17 -21 -11 -3 -11 -1 1 7 8 6 11 11 7 11 -5 0
-5 5 -2 10 9 15 14 12 11 -7z m344 5 c0 -4 -4 -8 -9 -8 -6 0 -12 4 -15 8 -3 5
1 9 9 9 8 0 15 -4 15 -9z m44 1 c-2 -4 1 -9 8 -11 7 -3 4 -7 -7 -12 -11 -4
-16 -4 -12 0 4 4 2 12 -3 19 -7 8 -5 12 5 12 8 0 12 -4 9 -8z m321 2 c3 -5 1
-12 -5 -16 -5 -3 -10 1 -10 9 0 18 6 21 15 7z m-1725 -21 c0 -5 -5 -10 -11
-10 -5 0 -7 5 -4 10 3 6 8 10 11 10 2 0 4 -4 4 -10z m395 0 c3 -5 1 -10 -4
-10 -6 0 -11 5 -11 10 0 6 2 10 4 10 3 0 8 -4 11 -10z m805 -2 c0 -10 2 -10 9
0 7 11 9 11 14 -1 7 -18 -17 -17 -35 1 -9 9 -9 12 0 12 7 0 12 -6 12 -12z m72
-10 c-7 -7 -12 -8 -12 -2 0 14 12 26 19 19 2 -3 -1 -11 -7 -17z m-362 -2 c-7
-7 -13 -7 -20 0 -6 6 -3 10 10 10 13 0 16 -4 10 -10z m-1730 -2 c0 -8 -19 -13
-24 -6 -3 5 1 9 9 9 8 0 15 -2 15 -3z m1330 -4 c0 -5 -5 -10 -11 -10 -5 0 -7
5 -4 10 3 6 8 10 11 10 2 0 4 -4 4 -10z m70 0 c0 -5 -2 -10 -4 -10 -3 0 -8 5
-11 10 -3 6 -1 10 4 10 6 0 11 -4 11 -10z m365 0 c-3 -5 -12 -10 -18 -10 -7 0
-6 4 3 10 19 12 23 12 15 0z m95 0 c0 -5 -2 -10 -4 -10 -3 0 -8 5 -11 10 -3 6
-1 10 4 10 6 0 11 -4 11 -10z"/>
<path d="M2987 975 c-6 -15 10 -32 20 -21 4 3 1 6 -5 6 -6 0 -9 7 -6 15 4 8 4
15 1 15 -3 0 -7 -7 -10 -15z"/>
<path d="M3016 968 c3 -5 10 -6 15 -3 13 9 11 12 -6 12 -8 0 -12 -4 -9 -9z"/>
<path d="M2914 952 c3 -5 2 -12 -4 -14 -5 -2 -6 -9 -1 -16 6 -10 10 -9 14 7 3
12 0 24 -5 28 -6 3 -8 1 -4 -5z"/>
<path d="M2724 907 c-4 -6 -4 -9 1 -5 4 4 14 3 22 -4 7 -6 15 -9 18 -7 2 3 -4
10 -15 17 -15 9 -21 9 -26 -1z"/>
<path d="M3073 889 c-2 -23 3 -25 10 -4 4 8 3 16 -1 19 -4 3 -9 -4 -9 -15z"/>
<path d="M3090 870 c0 -5 0 -13 1 -16 0 -4 -5 -10 -13 -15 -9 -6 -6 -8 9 -6
15 1 19 5 13 12 -6 7 -5 16 2 23 9 9 9 12 0 12 -7 0 -12 -4 -12 -10z"/>
<path d="M3155 870 c3 -5 8 -10 11 -10 2 0 4 5 4 10 0 6 -5 10 -11 10 -5 0 -7
-4 -4 -10z"/>
<path d="M3210 876 c0 -2 7 -7 16 -10 8 -3 12 -2 9 4 -6 10 -25 14 -25 6z"/>
<path d="M3217 849 c7 -7 15 -10 18 -7 3 3 -2 9 -12 12 -14 6 -15 5 -6 -5z"/>
<path d="M3290 850 c0 -5 5 -10 11 -10 5 0 7 5 4 10 -3 6 -8 10 -11 10 -2 0
-4 -4 -4 -10z"/>
<path d="M2930 864 c0 -1 6 -7 14 -13 10 -8 16 -8 24 2 9 10 6 13 -13 13 -14
0 -25 -1 -25 -2z"/>
<path d="M1729 814 c-6 -8 -8 -14 -3 -14 5 0 2 -5 -6 -10 -12 -8 -12 -10 -1
-10 10 0 11 -3 2 -14 -8 -9 -8 -16 -2 -20 5 -4 13 -1 17 5 5 8 9 8 14 -2 6 -9
15 -4 33 17 21 23 23 32 13 42 -19 19 -53 22 -67 6z m32 -8 c5 3 9 -2 9 -11 0
-9 5 -13 10 -10 6 4 7 11 4 17 -5 7 -2 8 5 4 16 -10 -17 -49 -35 -42 -6 2 -18
-1 -25 -7 -11 -10 -11 -9 -1 4 6 9 9 19 5 23 -4 4 1 4 12 1 19 -6 19 -6 3 8
-10 8 -14 17 -11 21 4 4 9 2 11 -3 2 -6 8 -9 13 -5z"/>
<path d="M617 995 c3 -11 3 -17 -2 -13 -10 9 -45 -9 -45 -23 0 -6 7 -3 16 6
12 11 19 13 24 5 4 -6 15 -8 26 -4 19 7 19 6 0 -8 -16 -13 -16 -15 -2 -15 9 0
16 3 16 7 0 3 9 6 21 7 18 2 19 0 7 -15 -11 -15 -11 -15 3 -5 12 10 18 10 28
0 11 -10 11 -8 3 9 -6 12 -9 24 -6 27 4 3 -3 5 -15 4 -11 -1 -21 -5 -21 -10 0
-4 -5 -5 -11 -1 -8 4 -7 9 2 15 7 4 17 5 21 3 4 -3 8 0 8 5 0 6 -11 10 -24 9
-14 -1 -22 -6 -20 -10 10 -16 -9 -8 -22 10 -13 16 -14 16 -7 -3z"/>
<path d="M415 991 c-3 -5 -2 -12 3 -15 5 -3 9 1 9 9 0 17 -3 19 -12 6z"/>
<path d="M550 990 c0 -5 5 -10 10 -10 6 0 10 5 10 10 0 6 -4 10 -10 10 -5 0
-10 -4 -10 -10z"/>
<path d="M525 970 c3 -5 8 -10 11 -10 2 0 4 5 4 10 0 6 -5 10 -11 10 -5 0 -7
-4 -4 -10z"/>
<path d="M476 948 c3 -5 10 -6 15 -3 13 9 11 12 -6 12 -8 0 -12 -4 -9 -9z"/>
<path d="M590 950 c0 -5 5 -10 11 -10 5 0 7 5 4 10 -3 6 -8 10 -11 10 -2 0 -4
-4 -4 -10z"/>
<path d="M1073 913 c4 -3 1 -13 -6 -22 -11 -14 -10 -14 5 -2 16 12 16 31 1 31
-4 0 -3 -3 0 -7z"/>
<path d="M1107 905 c-8 -19 10 -30 27 -16 7 6 15 10 17 8 2 -1 -2 4 -10 11
-19 16 -28 15 -34 -3z m23 -5 c0 -5 -5 -10 -11 -10 -5 0 -7 5 -4 10 3 6 8 10
11 10 2 0 4 -4 4 -10z"/>
<path d="M1174 899 c-4 -7 -3 -9 4 -5 5 3 12 1 14 -4 5 -15 58 -23 58 -9 0 7
-3 9 -7 6 -3 -4 -12 -2 -20 4 -7 6 -13 8 -13 4 0 -4 -6 -2 -14 4 -11 9 -16 9
-22 0z"/>
<path d="M1355 890 c-3 -5 -1 -10 4 -10 6 0 11 5 11 10 0 6 -2 10 -4 10 -3 0
-8 -4 -11 -10z"/>
<path d="M1386 892 c-3 -5 1 -9 9 -9 8 0 15 4 15 9 0 4 -4 8 -9 8 -6 0 -12 -4
-15 -8z"/>
<path d="M936 863 c-6 -14 -5 -15 5 -6 7 7 10 15 7 18 -3 3 -9 -2 -12 -12z"/>
<path d="M1015 870 c3 -5 8 -10 11 -10 2 0 4 5 4 10 0 6 -5 10 -11 10 -5 0 -7
-4 -4 -10z"/>
<path d="M1135 871 c-3 -5 -2 -12 3 -15 5 -3 9 1 9 9 0 17 -3 19 -12 6z"/>
<path d="M1473 854 c-5 -13 -7 -13 -14 -2 -7 10 -9 9 -9 -5 0 -10 -4 -15 -10
-12 -5 3 -10 1 -10 -5 0 -7 6 -10 14 -7 21 8 28 -4 14 -22 -11 -13 5 -3 42 28
3 2 -3 1 -12 -2 -21 -7 -22 -3 -8 24 6 10 8 19 5 19 -3 0 -8 -7 -12 -16z"/>
<path d="M1200 850 c-12 -7 -10 -9 8 -7 12 0 22 5 22 9 0 11 -12 10 -30 -2z"/>
<path d="M1662 847 c-8 -10 -6 -13 8 -14 13 -1 17 3 13 13 -6 17 -8 17 -21 1z"/>
<path d="M1150 829 c0 -5 5 -7 10 -4 6 3 10 8 10 11 0 2 -4 4 -10 4 -5 0 -10
-5 -10 -11z"/>
<path d="M1260 836 c0 -2 8 -10 18 -17 15 -13 16 -12 3 4 -13 16 -21 21 -21
13z"/>
<path d="M1308 833 c6 -2 18 -2 25 0 6 3 1 5 -13 5 -14 0 -19 -2 -12 -5z"/>
<path d="M1406 812 c-3 -5 1 -9 9 -9 8 0 12 4 9 9 -3 4 -7 8 -9 8 -2 0 -6 -4
-9 -8z"/>
<path d="M1510 815 c0 -5 5 -17 10 -25 5 -8 10 -10 10 -5 0 6 -5 17 -10 25 -5
8 -10 11 -10 5z"/>
<path d="M4412 801 c-10 -6 -7 -12 12 -25 21 -13 29 -14 46 -4 21 13 27 28 11
28 -5 0 -11 -7 -15 -15 -3 -8 -11 -15 -17 -15 -9 0 -9 4 0 14 8 10 9 16 1 21
-6 4 -9 3 -8 -2 2 -4 -1 -9 -7 -10 -5 -2 -9 2 -7 7 3 12 1 12 -16 1z"/>
<path d="M1481 786 c-9 -11 -9 -16 1 -22 7 -4 10 -4 6 1 -4 4 -3 14 3 22 6 7
9 13 6 13 -2 0 -10 -6 -16 -14z"/>
<path d="M1586 792 c-3 -4 4 -9 15 -9 23 -2 25 3 4 10 -8 4 -16 3 -19 -1z"/>
<path d="M4516 789 c2 -4 -1 -9 -8 -11 -7 -3 -4 -7 7 -12 11 -4 16 -4 12 0 -4
4 -2 12 3 19 7 8 5 12 -5 12 -8 0 -12 -4 -9 -8z"/>
<path d="M4334 778 c-3 -5 -10 -6 -15 -3 -5 4 -9 0 -9 -8 0 -18 40 -15 51 5 6
10 4 15 -7 15 -8 0 -17 -4 -20 -9z"/>
<path d="M1497 761 c-4 -17 -3 -21 5 -13 5 5 8 16 6 23 -3 8 -7 3 -11 -10z"/>
<path d="M1540 765 c-7 -8 -11 -15 -9 -16 54 -10 55 -10 34 7 -18 14 -18 15
-2 10 11 -3 16 -2 12 4 -9 14 -21 12 -35 -5z"/>
<path d="M1390 766 c0 -2 8 -10 18 -17 15 -13 16 -12 3 4 -13 16 -21 21 -21
13z"/>
<path d="M4120 750 c-8 -5 -12 -11 -9 -14 2 -3 11 -1 19 4 8 5 12 11 9 14 -2
3 -11 1 -19 -4z"/>
<path d="M1385 730 c10 -11 20 -20 23 -20 3 0 -3 9 -13 20 -10 11 -20 20 -23
20 -3 0 3 -9 13 -20z"/>
<path d="M1455 730 c3 -5 8 -10 11 -10 2 0 4 5 4 10 0 6 -5 10 -11 10 -5 0 -7
-4 -4 -10z"/>
<path d="M1510 729 c0 -5 5 -7 10 -4 6 3 10 8 10 11 0 2 -4 4 -10 4 -5 0 -10
-5 -10 -11z"/>
<path d="M1590 731 c0 -6 4 -13 10 -16 6 -3 7 1 4 9 -7 18 -14 21 -14 7z"/>
<path d="M1535 720 c-3 -6 1 -7 9 -4 18 7 21 14 7 14 -6 0 -13 -4 -16 -10z"/>
<path d="M3735 720 c-3 -5 -1 -10 4 -10 6 0 11 5 11 10 0 6 -2 10 -4 10 -3 0
-8 -4 -11 -10z"/>
</g>
</svg>
